<?xml version="1.0" standalone="no"?>
<!DOCTYPE svg PUBLIC "-//W3C//DTD SVG 20010904//EN"
 "http://www.w3.org/TR/2001/REC-SVG-20010904/DTD/svg10.dtd">
<svg version="1.0" xmlns="http://www.w3.org/2000/svg"
 width="200.000000pt" height="200.000000pt" viewBox="0 0 200.000000 200.000000"
 preserveAspectRatio="xMidYMid meet">

<g transform="translate(0.000000,200.000000) scale(0.100000,-0.100000)"
fill="#483434" stroke="none">
<path d="M827 1985 c-211 -40 -383 -131 -532 -280 -483 -482 -352 -1290 260
-1597 491 -247 1090 -47 1337 447 288 572 -32 1259 -657 1416 -107 27 -303 34
-408 14z m221 -52 c0 -24 -8 -44 -24 -62 -27 -29 -31 -14 -8 30 16 32 14 46
-5 34 -6 -3 -11 -17 -11 -31 0 -33 -18 -31 -23 4 -2 15 -3 8 -2 -15 l2 -43
-29 21 c-28 20 -29 22 -11 41 15 16 15 21 3 29 -24 15 6 29 62 29 l46 0 0 -37z
m-167 7 c-30 -26 -49 -26 -26 0 10 11 25 20 34 20 12 -1 10 -5 -8 -20z m215 3
c-6 -15 -4 -14 14 2 18 16 20 17 14 2 -7 -18 11 -24 21 -7 9 15 25 12 25 -5 0
-9 -9 -15 -25 -15 -41 0 -69 -19 -100 -70 -30 -49 -45 -62 -45 -37 0 6 11 22
24 35 14 12 34 43 46 67 21 43 39 63 26 28z m139 -40 c0 -24 -4 -43 -9 -43 -4
0 -5 -11 -2 -24 7 -30 -32 -136 -50 -136 -13 0 -20 22 -14 45 13 52 13 51 -8
27 -19 -20 -22 -21 -36 -6 -9 8 -16 24 -16 34 0 24 -16 35 -23 16 -3 -8 1 -20
9 -26 16 -14 19 -40 4 -40 -5 0 -10 5 -10 10 0 6 -10 10 -21 10 -36 0 -4 -27
41 -35 21 -4 41 -13 44 -21 5 -12 -1 -14 -32 -8 -69 12 -107 50 -83 83 6 9 14
24 18 34 3 10 21 24 40 32 44 18 43 18 43 -1 0 -10 5 -14 15 -10 10 4 20 -3
27 -19 15 -33 28 -22 28 25 0 21 5 40 11 42 7 2 7 12 0 30 -8 23 -7 26 7 25
14 -1 17 -10 17 -44z m95 2 c36 1 130 -32 130 -45 0 -4 -7 -10 -15 -14 -8 -3
-15 0 -15 6 0 6 -8 3 -19 -6 -19 -18 -81 -31 -81 -18 0 5 6 14 13 22 6 7 -2 4
-20 -8 -32 -23 -53 -28 -53 -14 0 4 5 13 11 19 7 7 7 13 0 17 -5 4 -17 -6 -25
-21 -8 -15 -15 -23 -15 -18 -1 13 22 76 33 94 8 13 10 13 15 0 4 -9 19 -14 41
-14z m-485 -25 c3 -5 -3 -10 -15 -10 -12 0 -25 -10 -32 -25 -10 -22 -8 -29 17
-55 l28 -29 -31 11 c-17 7 -29 16 -26 20 3 4 1 8 -5 8 -9 0 -31 -31 -31 -44 0
-3 6 -6 14 -6 8 0 18 -5 21 -10 4 -6 -6 -9 -27 -8 -31 3 -34 0 -63 -59 l-31
-61 0 56 c0 31 -5 57 -10 59 -6 2 -20 10 -30 18 -16 11 -17 16 -6 27 10 10 18
10 40 -3 23 -13 27 -22 26 -55 l-1 -39 13 30 c21 49 18 112 -7 125 -15 9 -24
8 -35 -1 -17 -14 -37 0 -26 18 6 9 17 10 42 3 23 -7 36 -6 41 1 8 14 19 -14
19 -48 0 -22 2 -24 15 -13 11 9 14 22 9 43 -4 21 -3 27 6 22 6 -4 20 2 31 14
21 23 44 27 54 11z m-258 -77 c-4 -17 -4 -17 -12 0 -4 9 -4 25 0 35 8 16 8 16
12 0 3 -10 3 -26 0 -35z m273 -3 c0 -8 9 -21 19 -27 13 -8 18 -19 14 -33 -6
-22 -23 -28 -23 -7 0 7 -11 29 -25 49 -32 47 -35 76 -5 51 11 -10 20 -24 20
-33z m45 19 c4 -6 13 -8 21 -5 14 5 20 -21 15 -73 -2 -23 -1 -24 22 -8 l25 16
6 -52 c12 -101 19 -131 36 -149 16 -18 17 -18 35 2 28 31 34 24 14 -17 -10
-21 -21 -51 -25 -68 l-7 -30 30 28 c41 38 50 34 12 -7 -17 -19 -44 -38 -60
-41 -24 -6 -29 -12 -30 -38 0 -31 -1 -31 -10 -8 -7 18 -5 35 6 63 19 48 19 92
1 107 -20 16 -29 60 -16 76 7 8 7 20 1 36 -5 13 -10 18 -10 12 -1 -22 -30 -14
-47 12 -10 15 -16 44 -16 69 1 30 -3 46 -13 50 -8 3 -15 12 -15 21 0 17 16 20
25 4z m445 -34 c-8 -9 -8 -15 -2 -15 6 0 17 -3 25 -6 9 -3 16 3 20 16 10 39
30 12 23 -31 -13 -81 -34 -102 -113 -114 -38 -6 -43 -5 -43 13 0 21 -32 40
-38 23 -7 -21 -24 -11 -19 10 l6 21 -20 -21 c-11 -11 -23 -21 -27 -21 -15 1
73 71 97 77 31 8 55 -8 56 -35 0 -27 18 -30 25 -5 3 11 14 18 29 18 13 0 26 6
29 14 3 10 -3 12 -24 7 -30 -6 -111 13 -113 27 -3 22 3 28 47 40 48 15 63 8
42 -18z m-805 6 c32 -16 36 -20 17 -20 -13 -1 -36 6 -52 14 -17 9 -30 12 -30
7 0 -5 -10 -14 -22 -19 -20 -9 -16 -11 22 -9 25 0 45 -3 45 -9 0 -5 -15 -8
-34 -7 -22 3 -31 0 -27 -7 4 -6 16 -11 26 -11 14 0 18 -5 13 -17 -4 -13 3 -10
24 10 35 32 46 33 88 7 30 -18 50 -52 38 -64 -7 -7 -63 28 -63 40 0 6 -7 17
-15 24 -12 10 -15 9 -15 -5 0 -10 7 -27 17 -37 15 -17 14 -18 -28 -18 -66 0
-89 9 -89 34 0 12 -9 27 -20 34 -28 17 -25 39 8 56 35 20 49 19 97 -3z m939 0
c3 -5 14 -7 24 -5 12 4 22 -5 34 -31 l16 -36 -51 -34 c-29 -19 -57 -35 -63
-35 -7 0 -21 -16 -33 -36 -23 -38 -20 -51 20 -103 11 -13 19 -34 19 -47 0 -13
6 -24 13 -24 8 0 8 -3 -2 -9 -12 -8 -12 -14 -4 -33 9 -17 12 -19 12 -6 1 12
14 18 55 23 29 4 61 5 71 3 22 -4 32 -28 12 -28 -8 0 -17 -7 -21 -15 -7 -18
15 -20 32 -3 9 9 12 7 12 -9 0 -12 4 -24 9 -27 15 -10 21 24 9 44 -18 28 -3
35 26 13 17 -12 25 -25 21 -37 -2 -11 1 -26 7 -33 12 -15 -12 -26 -77 -37 -38
-6 -43 -4 -94 44 -29 27 -57 47 -62 44 -11 -6 -26 28 -34 77 -3 20 -20 53 -39
75 l-33 38 -41 -13 c-24 -8 -57 -11 -79 -8 -29 5 -47 1 -71 -13 -18 -11 -39
-20 -46 -20 -20 0 -8 38 12 39 78 3 183 19 198 31 10 8 35 28 55 45 20 16 50
38 67 47 18 9 32 23 32 29 0 8 -9 4 -22 -8 -27 -24 -58 -36 -58 -23 0 5 12 15
27 22 14 7 28 19 31 26 6 18 -25 15 -32 -4 -4 -9 -9 -14 -12 -11 -8 8 35 97
46 97 5 0 11 -4 14 -9z m131 -40 c-3 -5 3 -11 12 -14 14 -3 10 -7 -14 -17 -39
-14 -40 -19 -7 -43 18 -14 35 -17 58 -13 28 5 34 3 39 -14 3 -13 14 -20 29
-20 21 -1 21 -2 5 -11 -14 -8 -23 -7 -36 5 -10 9 -34 16 -53 16 -25 0 -40 6
-50 22 -10 14 -20 19 -31 15 -28 -11 -31 -36 -8 -67 15 -22 17 -28 6 -24 -9 4
-22 19 -31 35 -8 16 -19 29 -23 29 -5 0 16 25 47 55 56 54 69 64 57 46z m-765
-44 c0 -5 9 -22 20 -37 l21 -29 -27 -17 c-24 -16 -67 -92 -69 -121 0 -6 -4
-15 -8 -19 -10 -10 -9 -24 2 -24 5 0 13 17 18 37 11 49 33 56 33 9 0 -19 4
-37 9 -40 5 -4 7 3 4 15 -3 12 0 25 7 29 9 6 8 13 -5 34 -22 33 -14 52 29 73
29 13 38 14 51 3 19 -16 20 -30 1 -30 -29 0 -38 -27 -26 -77 6 -26 11 -55 12
-63 1 -23 20 -42 35 -36 9 4 13 0 12 -12 -2 -9 0 -26 4 -38 5 -13 0 -38 -13
-65 -20 -45 -27 -118 -12 -135 5 -5 6 -20 3 -33 l-6 -23 -14 26 c-8 14 -24 29
-35 32 -26 8 -65 53 -66 76 0 9 -13 26 -29 37 -16 11 -36 39 -45 61 -18 45
-21 75 -5 48 12 -22 35 -23 43 -2 6 15 -14 44 -32 44 -5 0 -15 11 -22 25 -12
23 -11 28 13 53 15 16 27 34 27 40 0 18 -43 32 -53 18 -10 -15 -37 21 -37 50
0 22 37 54 64 54 10 0 14 -9 11 -34 -4 -42 10 -68 20 -37 3 11 4 25 0 31 -3 5
-2 17 3 25 7 13 10 12 20 -10 6 -14 16 -25 21 -25 18 0 22 39 7 69 -9 17 -16
38 -16 48 1 17 2 17 15 -1 8 -11 15 -24 15 -29z m-465 3 c-6 -26 -4 -29 12
-23 15 5 14 2 -5 -19 -28 -30 -44 -128 -21 -128 8 -1 28 -12 44 -25 32 -26 28
-33 -8 -14 -22 12 -22 12 -3 -10 11 -11 15 -21 10 -21 -5 0 -28 23 -52 50 -24
28 -52 50 -63 50 -10 0 -19 7 -19 15 0 19 24 19 40 0 17 -20 30 -10 30 25 0
18 -8 35 -22 46 l-23 16 27 -6 c24 -5 28 -3 34 21 9 42 13 53 19 53 4 0 4 -13
0 -30z m110 -49 c3 -6 -4 -15 -15 -21 -23 -12 -28 -42 -5 -34 8 4 15 13 15 20
0 19 41 34 90 34 46 0 60 -19 59 -77 l-1 -38 -11 33 c-7 18 -19 37 -27 42 -14
9 -63 5 -83 -7 -14 -8 32 -68 53 -68 37 -1 20 -19 -19 -20 -27 -1 -37 3 -34
11 9 25 -14 48 -48 48 -37 1 -46 18 -35 62 5 17 13 24 31 24 13 0 26 -4 30 -9z
m1029 -69 c3 -5 -2 -21 -9 -36 -8 -16 -12 -32 -9 -37 9 -15 24 1 24 26 0 35
16 39 38 10 11 -14 25 -25 31 -25 6 0 17 -12 25 -27 13 -25 15 -26 22 -9 5 12
2 21 -9 28 -10 5 -17 18 -17 29 0 17 6 20 33 17 28 -3 32 -7 33 -33 1 -16 -7
-44 -17 -61 l-19 -32 -88 3 -87 2 -2 29 c-1 16 -5 43 -8 60 -6 26 -3 34 16 48
26 18 36 20 43 8z m-1238 -94 c10 2 30 5 44 7 42 7 81 -45 44 -59 -29 -11 -54
-6 -75 15 -21 21 -39 22 -111 4 -18 -5 -28 -3 -28 4 0 6 12 11 27 11 21 0 24
3 15 12 -19 19 -14 30 7 18 31 -16 33 -13 27 33 l-6 42 18 -45 c14 -34 23 -44
38 -42z m1450 23 c-14 -15 -26 -31 -26 -36 0 -5 -8 -17 -17 -28 -18 -20 -17
-20 27 -13 55 9 70 21 70 57 0 16 5 29 11 29 7 0 10 -12 7 -29 -4 -25 -2 -28
12 -21 11 6 18 2 26 -13 9 -21 7 -22 -34 -23 -25 -1 -50 -8 -59 -17 -15 -14
-15 -18 0 -41 20 -30 50 -41 76 -27 28 15 36 14 21 -4 -10 -13 -10 -19 2 -33
19 -22 29 -59 20 -80 -5 -13 -8 -9 -12 13 -6 29 -7 29 -16 -15 -9 -40 -13 -45
-35 -42 -13 1 -30 10 -37 19 -10 15 -9 19 10 29 13 7 26 10 30 8 5 -3 8 -1 8
4 0 18 -27 21 -48 6 -13 -9 -23 -10 -27 -5 -8 14 53 44 76 38 27 -7 23 10 -6
29 -28 18 -55 13 -55 -11 0 -8 -5 -15 -10 -15 -6 0 -8 10 -4 24 3 13 -1 37
-10 54 -12 24 -25 32 -57 37 l-41 7 31 32 c21 22 31 42 31 63 0 18 5 35 11 39
8 4 9 0 4 -15 -10 -32 14 -26 26 7 7 17 13 22 16 14 3 -8 -7 -26 -21 -41z
m-1056 -21 c0 -21 5 -51 11 -66 10 -28 10 -28 -11 -9 -16 15 -25 16 -43 7 -12
-6 -39 -13 -59 -17 -44 -7 -60 -30 -78 -117 -6 -32 -14 -58 -17 -58 -2 0 -3
24 -1 53 l3 52 -49 12 c-59 15 -60 16 -46 43 12 23 56 44 76 36 7 -3 18 2 25
10 10 12 13 12 24 -3 11 -15 15 -15 29 -4 9 7 29 11 46 9 39 -6 40 15 2 31
-22 9 -37 8 -71 -4 -54 -19 -56 -19 -41 0 13 15 89 31 131 27 19 -2 28 4 37
23 16 35 32 23 32 -25z m543 11 c-28 -23 -28 -22 -3 -51 26 -30 10 -52 -18
-27 -10 9 -23 17 -28 17 -5 0 -3 -4 5 -9 7 -5 18 -33 22 -62 9 -51 7 -55 -17
-76 -14 -13 -33 -23 -42 -23 -14 0 -14 -2 -3 -9 15 -10 7 -31 -13 -31 -8 0
-20 -8 -27 -17 -13 -15 -11 -16 19 -10 29 6 32 4 32 -18 0 -13 5 -27 12 -31 8
-5 9 4 4 34 -4 26 -2 42 4 42 5 0 10 -4 10 -10 0 -5 7 -10 15 -10 8 0 15 7 15
15 0 8 -7 15 -15 15 -21 0 -19 24 5 45 11 10 20 26 20 36 0 13 5 16 16 12 14
-5 14 -3 3 14 -19 32 -5 53 36 53 32 0 35 -2 21 -15 -8 -8 -22 -12 -30 -9 -21
8 -21 -19 -1 -36 14 -12 14 -15 0 -30 -15 -16 -14 -18 10 -24 24 -6 26 -10 20
-44 -5 -34 -3 -40 25 -60 40 -30 39 -67 -2 -67 -39 -1 -45 -13 -14 -24 16 -7
26 -18 26 -30 0 -11 4 -22 9 -25 13 -8 20 31 8 43 -7 7 -6 15 2 25 10 12 16
12 39 0 22 -11 26 -19 24 -45 -3 -21 0 -29 7 -25 6 4 11 16 11 27 0 17 4 20
29 14 17 -3 32 -2 36 4 7 12 -3 17 -56 25 -46 8 -134 104 -124 136 8 26 35 26
42 1 6 -24 33 -36 33 -16 0 8 -12 22 -26 32 -46 32 -64 53 -64 73 0 11 7 20
15 20 8 0 15 -7 15 -15 0 -8 9 -19 20 -25 28 -15 25 2 -5 38 -18 21 -21 31
-12 35 7 2 13 17 15 33 3 35 25 59 47 50 17 -6 17 -18 0 -58 -5 -14 -2 -18 14
-18 32 0 39 -30 12 -52 -23 -17 -23 -18 -3 -18 12 0 24 4 27 10 14 23 95 -45
95 -80 0 -5 -16 -10 -35 -10 -33 0 -35 -2 -29 -27 6 -21 4 -25 -9 -20 -21 8
-30 -19 -14 -46 17 -30 28 -37 53 -31 12 3 25 1 29 -6 4 -6 16 -8 26 -5 27 9
49 -12 49 -46 0 -22 4 -27 16 -22 11 4 15 1 12 -13 -2 -13 2 -18 12 -15 8 2
22 4 30 4 8 0 20 4 26 8 7 6 16 3 24 -6 9 -11 17 -12 30 -5 26 14 40 12 40 -3
0 -20 37 -50 54 -44 10 4 14 17 11 44 -2 24 2 44 12 55 8 9 13 27 11 40 -2 19
-9 23 -38 23 -19 0 -37 5 -40 10 -7 15 59 18 76 4 16 -13 19 -70 4 -85 -6 -6
-6 -15 0 -24 9 -13 11 -13 20 0 5 8 10 27 10 43 0 20 5 27 20 27 26 0 25 -20
-2 -55 -20 -25 -20 -28 -4 -37 9 -5 14 -13 11 -18 -3 -5 -1 -11 5 -15 26 -16
3 -176 -29 -204 -11 -10 -21 -24 -21 -30 0 -7 -4 -9 -10 -6 -17 10 -33 -5 -20
-20 7 -9 6 -16 -5 -25 -8 -7 -15 -17 -15 -22 0 -22 -46 -47 -87 -48 -23 0 -53
-5 -67 -12 -21 -9 -36 -8 -77 5 -71 23 -115 21 -164 -8 -40 -23 -47 -24 -111
-14 -38 5 -84 10 -103 9 -58 -1 -70 19 -66 112 3 53 -1 95 -10 122 -8 22 -15
51 -15 64 0 12 -9 39 -20 59 -11 21 -20 43 -20 49 0 6 -9 19 -20 29 -11 10
-20 28 -20 39 0 12 -11 37 -24 56 -29 43 -37 104 -20 146 7 17 11 40 8 51 -7
25 10 38 27 20 9 -10 22 -10 56 -3 50 12 55 29 21 71 l-22 28 43 39 c24 21 53
38 65 38 21 -1 21 -1 -1 -19z m-923 -81 c17 -17 18 -22 5 -47 -21 -40 -18 -70
10 -107 29 -38 31 -46 11 -46 -8 0 -17 11 -20 25 -4 14 -11 23 -16 20 -5 -3
-6 -13 -3 -22 4 -11 2 -14 -8 -11 -10 3 -13 18 -11 52 4 45 3 47 -16 37 -17
-9 -22 -6 -32 19 -14 34 -5 89 11 73 7 -7 8 -17 1 -29 -13 -25 -5 -44 19 -44
26 0 36 28 16 43 -11 9 -13 18 -6 35 10 27 14 27 39 2z m55 -34 c-11 -16 -13
-26 -6 -31 6 -3 11 0 11 7 0 8 5 6 11 -5 14 -25 4 -47 -21 -47 -13 0 -24 10
-31 27 -9 23 -6 29 18 49 35 29 37 29 18 0z m255 -12 c0 -9 -9 -18 -20 -21
-15 -4 -18 -11 -13 -34 4 -21 0 -36 -12 -49 -12 -13 -14 -20 -6 -20 9 0 11 -9
6 -30 -7 -33 1 -70 16 -70 5 0 15 16 23 35 13 30 20 35 48 34 33 0 33 0 11
-16 -13 -8 -23 -23 -24 -32 0 -12 -2 -12 -10 4 -6 14 -7 5 -3 -30 5 -45 2 -54
-20 -78 -16 -17 -26 -40 -26 -57 0 -16 -5 -32 -10 -35 -16 -10 -72 12 -103 40
-22 21 -25 30 -17 45 5 10 10 27 10 36 0 16 -1 16 -15 -2 -14 -18 -14 -18 -15
8 0 15 -5 30 -11 33 -19 13 -22 -4 -5 -39 23 -49 19 -89 -8 -67 -7 6 -20 3
-36 -9 l-25 -19 37 6 c41 6 128 -29 128 -52 0 -12 -67 -45 -90 -45 -18 0 -10
18 10 23 21 5 27 31 11 42 -11 6 -61 -15 -61 -27 0 -4 -8 -8 -19 -8 -10 0 -24
-7 -31 -15 -7 -8 -16 -15 -21 -15 -5 0 -9 7 -9 15 0 8 5 15 10 15 6 0 10 9 10
20 0 24 18 67 42 99 10 13 18 41 18 62 0 31 4 39 18 39 10 0 28 7 40 16 12 8
32 14 45 12 18 -2 23 2 25 27 2 17 10 37 18 47 11 11 12 18 4 23 -16 10 -4 55
22 83 25 26 58 29 58 6z m78 0 c12 -8 22 -22 22 -31 0 -8 14 -31 30 -50 37
-42 39 -65 3 -32 -20 17 -17 11 10 -23 39 -49 37 -57 -8 -36 -33 15 -53 62
-47 109 3 30 -1 40 -23 58 -32 24 -21 29 13 5z m-488 -67 c-9 -10 -50 9 -50
22 0 18 14 19 35 3 13 -9 20 -21 15 -25z m-56 -5 c-20 -13 -33 -47 -24 -63 7
-10 11 -6 16 19 5 26 11 32 32 32 l26 0 -35 -36 c-24 -24 -33 -42 -31 -60 5
-35 -14 -30 -27 7 -15 44 -14 59 10 98 16 26 23 31 32 22 8 -8 9 -14 1 -19z
m86 -42 c0 -10 9 -24 20 -30 11 -6 20 -17 20 -25 0 -11 -7 -11 -41 3 -48 19
-60 39 -34 58 26 19 35 17 35 -6z m158 -77 c-13 -12 -20 -14 -31 -5 -7 6 -24
8 -37 5 -14 -4 -21 -2 -17 4 4 6 19 13 35 16 26 5 28 9 25 44 l-3 38 22 -43
c20 -39 21 -43 6 -59z m1313 78 c-18 -11 -5 -31 19 -31 21 0 43 -29 55 -70 4
-14 14 -32 22 -41 12 -15 12 -19 -2 -33 -23 -23 -28 -20 -22 11 9 47 -26 112
-60 113 -15 0 -18 -41 -5 -55 5 -6 6 -21 1 -35 l-7 -25 -1 25 c-1 14 -5 31
-10 39 -6 10 -11 6 -20 -15 -8 -20 -10 -22 -7 -6 2 12 0 22 -5 22 -5 0 -2 12
7 26 15 22 15 27 2 40 -9 10 -24 13 -40 9 -21 -5 -24 -11 -20 -38 6 -44 -4
-31 -12 16 -7 37 -6 37 26 38 18 0 42 4 53 9 26 11 44 12 26 1z m189 -65 c0
-3 -4 -8 -10 -11 -5 -3 -10 -1 -10 4 0 6 5 11 10 11 6 0 10 -2 10 -4z m-1616
-77 l-7 -42 31 19 c18 10 32 21 32 24 0 4 6 15 14 25 12 17 13 14 7 -21 -5
-32 -13 -42 -41 -56 -40 -20 -66 -22 -75 -8 -3 6 -11 10 -18 10 -6 0 -2 -6 8
-14 17 -12 17 -16 5 -31 -15 -18 -111 -68 -118 -61 -8 9 10 27 49 47 31 16 39
24 34 39 -4 14 6 32 36 65 23 25 43 45 45 45 3 0 1 -19 -2 -41z m456 16 c16
-17 34 -25 59 -25 28 0 42 -8 79 -47 25 -27 58 -75 73 -108 29 -60 29 -61 15
-127 -8 -37 -16 -71 -20 -76 -3 -5 -20 -7 -38 -4 -32 5 -32 4 -16 -14 22 -25
16 -118 -8 -146 -33 -35 -106 -69 -136 -63 -28 7 -118 -28 -118 -44 0 -20 -78
-95 -121 -116 -54 -28 -79 -31 -97 -13 -10 10 -15 10 -20 1 -6 -9 -15 -7 -37
7 -33 22 -50 26 -39 9 4 -8 -1 -9 -17 -4 -36 11 -42 21 -28 46 8 13 14 48 14
77 1 54 13 73 45 71 35 -3 50 2 50 16 0 8 -4 15 -10 15 -5 0 -7 7 -3 16 6 18
-32 58 -47 49 -10 -6 -14 27 -4 37 8 8 51 -37 69 -72 9 -17 22 -30 30 -30 22
0 18 21 -5 27 -11 3 -20 11 -20 19 0 8 6 11 18 7 10 -4 14 -2 9 3 -5 5 -23 14
-40 20 -35 12 -47 45 -27 70 16 18 30 18 30 -1 0 -27 24 -16 50 22 l25 37 3
-42 c2 -23 8 -42 13 -42 7 0 8 15 4 40 -6 33 -4 40 9 40 10 0 16 9 16 25 0 18
5 25 20 25 25 0 49 45 33 61 -8 8 -17 7 -33 -1 -12 -6 -24 -9 -28 -6 -7 8 -8
7 66 43 l63 31 34 -33 35 -32 -21 -49 c-12 -27 -27 -54 -35 -60 -8 -6 -14 -20
-14 -30 0 -17 1 -17 17 -1 9 9 26 40 38 69 17 43 26 54 48 56 22 3 27 -1 33
-25 10 -45 12 -50 13 -20 1 15 3 27 4 27 2 0 30 -8 61 -19 51 -17 57 -17 54
-2 -2 11 -16 17 -48 19 -25 2 -52 9 -60 17 -8 7 -30 16 -48 20 -21 4 -37 16
-47 35 -8 15 -21 30 -30 33 -22 9 -19 60 5 82 13 12 20 31 20 56 0 32 8 45 31
48 3 1 16 -10 29 -24z m1222 1 c14 -21 -14 -18 -36 4 l-21 22 25 -7 c14 -4 28
-13 32 -19z m-1790 -10 c4 -5 1 -17 -5 -25 -10 -12 -9 -13 11 -2 13 7 26 10
30 7 6 -7 -47 -66 -59 -66 -4 0 -5 18 -2 40 7 47 -13 61 -49 36 -12 -9 -29
-16 -38 -16 -8 0 3 12 25 25 40 25 72 25 87 1z m154 -121 c-13 -51 -26 -75
-41 -75 -8 0 -15 -6 -15 -14 0 -8 -7 -16 -15 -20 -8 -3 -20 -17 -25 -30 -6
-16 -16 -24 -30 -23 -23 1 -28 17 -5 17 10 0 15 10 15 30 0 60 56 140 98 140
21 0 23 -4 18 -25z m772 -31 c-3 -14 -7 -10 -16 16 -12 32 -11 34 4 19 9 -9
14 -25 12 -35z m-88 -19 c0 -7 6 -20 13 -27 27 -26 38 -57 28 -75 -5 -10 -15
-32 -21 -50 -6 -17 -23 -42 -37 -55 -24 -21 -25 -21 -18 -3 4 11 10 35 13 53
4 33 16 42 25 20 10 -25 7 21 -3 49 -9 26 -9 27 5 9 26 -34 16 2 -15 52 -35
58 -37 66 -10 52 11 -6 20 -17 20 -25z m-805 8 c-4 -10 -10 -30 -13 -45 -2
-15 -10 -33 -18 -39 -8 -6 -14 -17 -14 -23 0 -6 -5 -28 -11 -49 -9 -33 -12
-36 -25 -22 -9 8 -20 15 -25 15 -22 0 -6 21 21 26 16 4 27 10 24 15 -3 5 -9 7
-14 4 -15 -9 -40 7 -40 27 0 13 11 24 30 31 22 8 28 16 24 29 -3 11 4 22 23
32 37 20 47 20 38 -1z m235 -85 c0 -7 3 -24 7 -38 l6 -25 -21 25 -21 25 -48
-54 c-64 -73 -77 -91 -63 -91 6 0 2 -12 -9 -26 -21 -27 -28 -50 -12 -40 11 7
21 -17 21 -49 0 -16 -12 -33 -35 -50 -27 -21 -35 -36 -41 -71 -3 -24 -10 -44
-15 -44 -4 0 -5 17 -2 38 6 34 5 36 -11 23 -9 -8 -19 -11 -23 -7 -4 3 4 14 18
24 44 31 99 84 94 92 -10 16 -54 -2 -57 -24 -2 -14 -11 -22 -28 -25 -25 -3
-25 -3 -6 18 11 12 15 21 9 21 -5 0 -18 -9 -28 -20 -10 -11 -23 -20 -28 -20
-6 0 -3 8 7 19 9 10 14 25 10 35 -5 14 -2 16 20 10 14 -3 37 -3 51 0 21 5 25
12 25 41 0 19 -4 35 -10 35 -5 0 -10 5 -10 10 0 6 7 10 15 10 8 0 15 6 15 13
0 7 14 25 31 40 17 14 28 31 24 37 -12 20 -44 10 -69 -22 -19 -25 -28 -30 -37
-21 -9 9 -7 18 12 37 13 14 30 26 37 26 16 0 16 17 0 24 -7 3 10 3 39 -1 43
-4 57 -2 80 15 32 24 53 28 53 10z m690 -147 c-6 -12 -9 -25 -6 -30 3 -4 1
-23 -4 -41 -7 -26 -6 -38 5 -50 8 -9 15 -21 15 -26 -1 -25 -40 43 -40 70 -1
29 -1 30 -15 12 -20 -26 -19 -55 2 -78 18 -20 4 -25 -15 -6 -21 21 -13 71 18
118 16 25 30 52 30 60 0 10 3 11 11 3 8 -8 8 -17 -1 -32z m111 -150 c43 1 147
-15 156 -25 3 -2 -34 -6 -81 -8 -80 -3 -98 3 -51 16 11 3 2 3 -21 1 -41 -5
-84 14 -84 37 0 6 8 4 19 -6 11 -10 34 -16 62 -15z m322 -3 c12 -6 37 -11 57
-11 30 1 32 0 10 -6 -14 -4 -35 -4 -48 1 -13 4 -40 8 -60 8 -28 0 -33 3 -22
10 20 13 37 12 63 -2z m247 -34 c22 -9 40 -20 40 -25 0 -5 -17 -1 -37 9 -21
11 -45 22 -53 25 -9 3 -10 6 -3 6 7 1 31 -6 53 -15z m-152 -24 c23 -14 82
-104 82 -125 0 -11 -106 13 -155 37 -33 15 -65 28 -72 28 -6 0 -22 14 -34 31
-28 40 -18 47 76 47 53 0 82 -5 103 -18z m136 0 c14 -5 26 -17 26 -26 0 -14
-7 -15 -42 -10 -24 4 -52 16 -63 26 -19 20 -19 20 17 20 20 0 48 -4 62 -10z
m-18 -74 c14 -11 16 -18 8 -26 -8 -8 -15 -4 -28 14 -18 29 -10 34 20 12z
m-1146 -16 c0 -5 -12 -23 -27 -39 -16 -16 -36 -41 -45 -54 -10 -14 -32 -29
-50 -32 -18 -4 -47 -18 -64 -31 -33 -26 -44 -29 -44 -14 0 14 70 59 110 70 24
7 48 27 74 60 41 52 46 56 46 40z m692 -22 c15 -10 39 -17 55 -16 43 3 54 -9
52 -55 0 -23 4 -60 10 -82 13 -51 14 -112 1 -120 -13 -8 -68 51 -86 92 -7 17
-18 35 -24 38 -20 13 -60 105 -60 140 0 38 1 39 52 3z m-314 -70 c6 -16 16
-28 21 -28 16 0 20 -27 9 -64 -6 -20 -14 -36 -17 -36 -3 0 -21 29 -40 64 -33
62 -33 65 -20 109 l13 46 12 -32 c6 -18 16 -44 22 -59z m-258 72 c0 -25 -30
-78 -55 -98 -14 -12 -38 -44 -52 -71 -23 -48 -77 -100 -90 -87 -17 16 54 196
77 196 5 0 25 16 44 35 34 33 76 47 76 25z m824 -25 c38 -16 101 -73 92 -82
-8 -8 -44 7 -79 35 -19 15 -49 35 -66 44 -36 20 -43 42 -8 29 12 -5 40 -17 61
-26z m-354 -94 c7 -29 25 -67 40 -85 48 -56 46 -96 -5 -96 -25 0 -35 17 -35
62 0 19 -4 28 -12 25 -15 -5 -16 -40 -3 -77 7 -22 6 -23 -8 -12 -23 20 -29 59
-13 90 19 36 19 121 0 149 -8 12 -14 30 -14 40 0 31 36 -38 50 -96z m-362 35
c-1 -51 -3 -57 -48 -101 -46 -45 -49 -46 -59 -27 -24 45 -14 82 38 133 26 27
53 49 59 49 6 0 10 -22 10 -54z m656 -79 c8 -7 18 -25 22 -41 6 -26 5 -27 -15
-17 -25 14 -44 50 -60 114 -17 70 -1 80 20 13 9 -32 24 -63 33 -69z m191 103
c8 -13 -15 -13 -35 0 -12 8 -11 10 7 10 12 0 25 -4 28 -10z m-570 -59 c3 -16
13 -35 21 -42 18 -15 18 -43 0 -58 -8 -7 -17 -23 -21 -38 -6 -24 -7 -25 -20
-7 -16 21 -18 57 -9 128 8 53 19 60 29 17z m408 -22 c3 -10 3 -19 -1 -19 -14
0 -42 35 -42 53 0 19 1 19 19 3 10 -10 21 -26 24 -37z m-199 -58 c73 -97 74
-107 3 -58 -27 18 -53 65 -72 127 -9 32 -3 25 69 -69z m-793 22 c-16 -57 -35
-80 -54 -65 -13 11 -10 20 21 68 39 60 49 59 33 -3z m402 -22 c-3 -14 -11 -39
-18 -56 -11 -30 -12 -29 -19 29 -4 40 -3 63 6 73 10 13 14 13 25 -3 7 -10 10
-28 6 -43z m-87 0 c-19 -36 -20 -63 -4 -107 9 -26 9 -36 -1 -48 -32 -38 -95 0
-95 56 0 29 9 45 52 88 56 57 73 61 48 11z m-189 -18 c-7 -43 -48 -89 -71 -80
-22 9 -20 15 19 70 43 58 60 61 52 10z m314 -83 c3 -68 -3 -90 -26 -90 -16 0
-35 30 -35 55 0 27 42 117 51 108 4 -4 9 -37 10 -73z m109 -45 c24 -38 19 -45
-32 -45 -33 0 -40 4 -49 27 -12 31 -6 64 18 100 l17 25 13 -37 c7 -20 22 -52
33 -70z m90 -6 c0 -19 -5 -29 -15 -29 -11 0 -15 11 -15 41 0 36 2 40 15 29 8
-7 15 -25 15 -41z"/>
<path d="M728 1639 c-19 -10 -25 -39 -9 -39 5 0 16 11 25 25 17 26 12 31 -16
14z"/>
<path d="M850 1431 c0 -11 5 -23 10 -26 6 -4 10 5 10 19 0 14 -4 26 -10 26 -5
0 -10 -9 -10 -19z"/>
<path d="M672 820 c1 -13 9 -25 16 -28 17 -5 15 23 -4 39 -14 11 -15 10 -12
-11z"/>
<path d="M100 890 c-12 -8 -12 -10 3 -16 9 -3 25 -3 34 0 15 6 15 8 3 16 -8 6
-17 10 -20 10 -3 0 -12 -4 -20 -10z"/>
</g>
</svg>
